M48
; DRILL file {KiCad 7.0.5} date Wed Mar 27 16:40:48 2024
; FORMAT={-:-/ absolute / metric / decimal}
; #@! TF.CreationDate,2024-03-27T16:40:48+04:00
; #@! TF.GenerationSoftware,Kicad,Pcbnew,7.0.5
; #@! TF.FileFunction,Plated,1,2,PTH
FMAT,2
METRIC
; #@! TA.AperFunction,Plated,PTH,ComponentDrill
T1C0.800
; #@! TA.AperFunction,Plated,PTH,ComponentDrill
T2C0.900
; #@! TA.AperFunction,Plated,PTH,ComponentDrill
T3C1.000
; #@! TA.AperFunction,Plated,PTH,ComponentDrill
T4C1.100
; #@! TA.AperFunction,Plated,PTH,ComponentDrill
T5C1.200
; #@! TA.AperFunction,Plated,PTH,ComponentDrill
T6C1.500
; #@! TA.AperFunction,Plated,PTH,ComponentDrill
T7C1.520
; #@! TA.AperFunction,Plated,PTH,ComponentDrill
T8C1.600
%
G90
G05
T1
X82.55Y152.4
X82.55Y165.1
X107.95Y95.25
X114.3Y152.4
X114.3Y165.1
X120.65Y95.25
T2
X99.06Y101.6
X101.6Y101.6
X107.95Y158.75
X110.49Y158.75
T3
X69.85Y139.7
X69.85Y142.24
X69.85Y144.78
X75.05Y127.0
X82.55Y127.0
X101.6Y115.57
X101.6Y118.11
X101.6Y120.65
X133.35Y114.3
X133.35Y116.84
X133.35Y119.38
T4
X76.2Y158.75
X76.2Y161.29
X76.2Y163.83
T5
X88.9Y105.405
X88.9Y135.885
X101.6Y130.815
X101.6Y161.295
X127.0Y101.6
X127.0Y133.35
X127.0Y165.1
X134.5Y101.6
X134.5Y133.35
X134.5Y165.1
T6
X77.1Y146.05
X82.55Y146.05
X88.0Y146.05
X107.95Y101.6
X113.4Y101.6
X114.3Y107.95
X114.3Y122.65
X118.85Y101.6
T7
X96.52Y184.15
X101.6Y184.15
X114.3Y82.55
X119.38Y82.55
X139.7Y147.32
X139.7Y152.4
T8
X114.3Y129.54
X114.3Y134.62
X114.3Y139.7
X114.3Y144.78
T0
M30
